<svg viewBox="0 0 1920 1080" xmlns="http://www.w3.org/2000/svg"><mask id="b" x="0" y="0" width="1920" height="1080"><path fill="url(#a)" d="M0 0h1920v1080H0z"/></mask><path fill="#101354" d="M0 0h1920v1080H0z"/><g style="transform-origin:center center" stroke="#7c7d91" stroke-width="1.92" mask="url(#b)"><path fill="none" d="M0 0h96v96H0zM96 0h96v96H96z"/><path fill="#7c7d9195" d="M192 0h96v96h-96z"/><path fill="none" d="M288 0h96v96h-96zM384 0h96v96h-96z"/><path fill="#7c7d9100" d="M480 0h96v96h-96z"/><path fill="none" d="M576 0h96v96h-96zM672 0h96v96h-96zM768 0h96v96h-96z"/><path fill="#7c7d9167" d="M864 0h96v96h-96z"/><path fill="#7c7d91d2" d="M960 0h96v96h-96z"/><path fill="none" d="M1056 0h96v96h-96z"/><path fill="#7c7d91d9" d="M1152 0h96v96h-96z"/><path fill="#7c7d915f" d="M1248 0h96v96h-96z"/><path fill="none" d="M1344 0h96v96h-96zM1440 0h96v96h-96zM1536 0h96v96h-96zM1632 0h96v96h-96zM1728 0h96v96h-96zM1824 0h96v96h-96zM0 96h96v96H0zM96 96h96v96H96z"/><path fill="#7c7d9155" d="M192 96h96v96h-96z"/><path fill="none" d="M288 96h96v96h-96zM384 96h96v96h-96zM480 96h96v96h-96z"/><path fill="#7c7d919d" d="M576 96h96v96h-96z"/><path fill="none" d="M672 96h96v96h-96zM768 96h96v96h-96zM864 96h96v96h-96zM960 96h96v96h-96zM1056 96h96v96h-96zM1152 96h96v96h-96z"/><path fill="#7c7d91b6" d="M1248 96h96v96h-96z"/><path fill="none" d="M1344 96h96v96h-96z"/><path fill="#7c7d9159" d="M1440 96h96v96h-96z"/><path fill="#7c7d910f" d="M1536 96h96v96h-96z"/><path fill="none" d="M1632 96h96v96h-96z"/><path fill="#7c7d9166" d="M1728 96h96v96h-96z"/><path fill="none" d="M1824 96h96v96h-96z"/><path fill="#7c7d9144" d="M0 192h96v96H0z"/><path fill="none" d="M96 192h96v96H96zM192 192h96v96h-96z"/><path fill="#7c7d916f" d="M288 192h96v96h-96z"/><path fill="none" d="M384 192h96v96h-96zM480 192h96v96h-96zM576 192h96v96h-96zM672 192h96v96h-96z"/><path fill="#7c7d91a7" d="M768 192h96v96h-96z"/><path fill="none" d="M864 192h96v96h-96zM960 192h96v96h-96zM1056 192h96v96h-96zM1152 192h96v96h-96zM1248 192h96v96h-96zM1344 192h96v96h-96zM1440 192h96v96h-96zM1536 192h96v96h-96zM1632 192h96v96h-96zM1728 192h96v96h-96z"/><path fill="#7c7d9137" d="M1824 192h96v96h-96z"/><path fill="none" d="M0 288h96v96H0zM96 288h96v96H96zM192 288h96v96h-96z"/><path fill="#7c7d91a9" d="M288 288h96v96h-96z"/><path fill="#7c7d9119" d="M384 288h96v96h-96z"/><path fill="#7c7d917c" d="M480 288h96v96h-96z"/><path fill="none" d="M576 288h96v96h-96z"/><path fill="#7c7d91e8" d="M672 288h96v96h-96z"/><path fill="none" d="M768 288h96v96h-96zM864 288h96v96h-96zM960 288h96v96h-96z"/><path fill="#7c7d91b9" d="M1056 288h96v96h-96z"/><path fill="none" d="M1152 288h96v96h-96z"/><path fill="#7c7d9143" d="M1248 288h96v96h-96z"/><path fill="none" d="M1344 288h96v96h-96zM1440 288h96v96h-96zM1536 288h96v96h-96zM1632 288h96v96h-96zM1728 288h96v96h-96zM1824 288h96v96h-96zM0 384h96v96H0zM96 384h96v96H96zM192 384h96v96h-96zM288 384h96v96h-96zM384 384h96v96h-96zM480 384h96v96h-96zM576 384h96v96h-96zM672 384h96v96h-96zM768 384h96v96h-96zM864 384h96v96h-96z"/><path fill="#7c7d9164" d="M960 384h96v96h-96z"/><path fill="none" d="M1056 384h96v96h-96z"/><path fill="#7c7d91eb" d="M1152 384h96v96h-96z"/><path fill="none" d="M1248 384h96v96h-96zM1344 384h96v96h-96zM1440 384h96v96h-96z"/><path fill="#7c7d917f" d="M1536 384h96v96h-96z"/><path fill="none" d="M1632 384h96v96h-96z"/><path fill="#7c7d9194" d="M1728 384h96v96h-96z"/><path fill="none" d="M1824 384h96v96h-96zM0 480h96v96H0zM96 480h96v96H96zM192 480h96v96h-96z"/><path fill="#7c7d917e" d="M288 480h96v96h-96z"/><path fill="none" d="M384 480h96v96h-96zM480 480h96v96h-96zM576 480h96v96h-96zM672 480h96v96h-96zM768 480h96v96h-96zM864 480h96v96h-96z"/><path fill="#7c7d9186" d="M960 480h96v96h-96z"/><path fill="none" d="M1056 480h96v96h-96zM1152 480h96v96h-96zM1248 480h96v96h-96zM1344 480h96v96h-96zM1440 480h96v96h-96zM1536 480h96v96h-96zM1632 480h96v96h-96z"/><path fill="#7c7d9193" d="M1728 480h96v96h-96z"/><path fill="#7c7d91cf" d="M1824 480h96v96h-96z"/><path fill="none" d="M0 576h96v96H0zM96 576h96v96H96zM192 576h96v96h-96zM288 576h96v96h-96zM384 576h96v96h-96zM480 576h96v96h-96zM576 576h96v96h-96z"/><path fill="#7c7d91f2" d="M672 576h96v96h-96z"/><path fill="none" d="M768 576h96v96h-96z"/><path fill="#7c7d91e1" d="M864 576h96v96h-96z"/><path fill="none" d="M960 576h96v96h-96zM1056 576h96v96h-96zM1152 576h96v96h-96zM1248 576h96v96h-96zM1344 576h96v96h-96zM1440 576h96v96h-96zM1536 576h96v96h-96zM1632 576h96v96h-96z"/><path fill="#7c7d915f" d="M1728 576h96v96h-96z"/><path fill="none" d="M1824 576h96v96h-96zM0 672h96v96H0z"/><path fill="#7c7d9132" d="M96 672h96v96H96z"/><path fill="#7c7d9177" d="M192 672h96v96h-96z"/><path fill="#7c7d912c" d="M288 672h96v96h-96z"/><path fill="#7c7d913e" d="M384 672h96v96h-96z"/><path fill="#7c7d9137" d="M480 672h96v96h-96z"/><path fill="none" d="M576 672h96v96h-96zM672 672h96v96h-96zM768 672h96v96h-96zM864 672h96v96h-96zM960 672h96v96h-96zM1056 672h96v96h-96zM1152 672h96v96h-96z"/><path fill="#7c7d9180" d="M1248 672h96v96h-96z"/><path fill="none" d="M1344 672h96v96h-96zM1440 672h96v96h-96zM1536 672h96v96h-96z"/><path fill="#7c7d9116" d="M1632 672h96v96h-96z"/><path fill="#7c7d9146" d="M1728 672h96v96h-96z"/><path fill="#7c7d9159" d="M1824 672h96v96h-96z"/><path fill="none" d="M0 768h96v96H0z"/><path fill="#7c7d9160" d="M96 768h96v96H96z"/><path fill="none" d="M192 768h96v96h-96zM288 768h96v96h-96zM384 768h96v96h-96zM480 768h96v96h-96zM576 768h96v96h-96zM672 768h96v96h-96zM768 768h96v96h-96zM864 768h96v96h-96zM960 768h96v96h-96z"/><path fill="#7c7d91f3" d="M1056 768h96v96h-96z"/><path fill="none" d="M1152 768h96v96h-96zM1248 768h96v96h-96z"/><path fill="#7c7d91d6" d="M1344 768h96v96h-96z"/><path fill="none" d="M1440 768h96v96h-96zM1536 768h96v96h-96z"/><path fill="#7c7d9181" d="M1632 768h96v96h-96z"/><path fill="#7c7d91a4" d="M1728 768h96v96h-96z"/><path fill="none" d="M1824 768h96v96h-96zM0 864h96v96H0zM96 864h96v96H96zM192 864h96v96h-96zM288 864h96v96h-96z"/><path fill="#7c7d9120" d="M384 864h96v96h-96z"/><path fill="#7c7d9164" d="M480 864h96v96h-96z"/><path fill="none" d="M576 864h96v96h-96zM672 864h96v96h-96zM768 864h96v96h-96zM864 864h96v96h-96zM960 864h96v96h-96z"/><path fill="#7c7d9107" d="M1056 864h96v96h-96z"/><path fill="none" d="M1152 864h96v96h-96zM1248 864h96v96h-96z"/><path fill="#7c7d9167" d="M1344 864h96v96h-96z"/><path fill="none" d="M1440 864h96v96h-96z"/><path fill="#7c7d9190" d="M1536 864h96v96h-96z"/><path fill="none" d="M1632 864h96v96h-96z"/><path fill="#7c7d9149" d="M1728 864h96v96h-96z"/><path fill="#7c7d915c" d="M1824 864h96v96h-96z"/><path fill="#7c7d918a" d="M0 960h96v96H0z"/><path fill="none" d="M96 960h96v96H96z"/><path fill="#7c7d91ce" d="M192 960h96v96h-96z"/><path fill="none" d="M288 960h96v96h-96zM384 960h96v96h-96zM480 960h96v96h-96zM576 960h96v96h-96zM672 960h96v96h-96zM768 960h96v96h-96zM864 960h96v96h-96z"/><path fill="#7c7d912e" d="M960 960h96v96h-96z"/><path fill="none" d="M1056 960h96v96h-96zM1152 960h96v96h-96zM1248 960h96v96h-96z"/><path fill="#7c7d91c0" d="M1344 960h96v96h-96z"/><path fill="none" d="M1440 960h96v96h-96z"/><path fill="#7c7d9130" d="M1536 960h96v96h-96z"/><path fill="#7c7d918c" d="M1632 960h96v96h-96z"/><path fill="none" d="M1728 960h96v96h-96z"/><path fill="#7c7d917f" d="M1824 960h96v96h-96z"/><path fill="none" d="M0 1056h96v96H0z"/><path fill="#7c7d91e0" d="M96 1056h96v96H96z"/><path fill="none" d="M192 1056h96v96h-96z"/><path fill="#7c7d91f3" d="M288 1056h96v96h-96z"/><path fill="none" d="M384 1056h96v96h-96z"/><path fill="#7c7d91a6" d="M480 1056h96v96h-96z"/><path fill="none" d="M576 1056h96v96h-96zM672 1056h96v96h-96zM768 1056h96v96h-96z"/><path fill="#7c7d911b" d="M864 1056h96v96h-96z"/><path fill="none" d="M960 1056h96v96h-96zM1056 1056h96v96h-96zM1152 1056h96v96h-96zM1248 1056h96v96h-96zM1344 1056h96v96h-96zM1440 1056h96v96h-96z"/><path fill="#7c7d9134" d="M1536 1056h96v96h-96z"/><path fill="none" d="M1632 1056h96v96h-96zM1728 1056h96v96h-96z"/><path fill="#7c7d9153" d="M1824 1056h96v96h-96z"/></g><defs><radialGradient id="a"><stop offset="0" stop-color="#fff"/><stop offset="1" stop-color="#fff" stop-opacity="0"/></radialGradient></defs></svg>